<?xml version="1.0" standalone="no"?>
<!DOCTYPE svg PUBLIC "-//W3C//DTD SVG 20010904//EN"
 "http://www.w3.org/TR/2001/REC-SVG-20010904/DTD/svg10.dtd">
<svg version="1.0" xmlns="http://www.w3.org/2000/svg"
 width="1500.000000pt" height="1500.000000pt" viewBox="0 0 1500.000000 1500.000000"
 preserveAspectRatio="xMidYMid meet">
<metadata>
Created by potrace 1.11, written by Peter Selinger 2001-2013
</metadata>
<g transform="translate(0.000000,1500.000000) scale(0.100000,-0.100000)"
fill="#000000" stroke="none">
<path d="M0 12619 c0 -1901 3 -2380 13 -2376 1489 649 2831 1207 3526 1467
1109 414 5653 1854 8411 2665 796 234 1526 438 2001 559 l254 65 -7102 1
-7103 0 0 -2381z"/>
<path d="M14360 12699 c-3022 -819 -5103 -1421 -6885 -1991 -504 -161 -1933
-677 -3465 -1250 -666 -249 -989 -377 -1290 -511 -402 -179 -589 -266 -2127
-992 l-592 -280 -1 -3837 0 -3838 7500 0 7500 0 0 6435 c0 3539 -3 6435 -7
6434 -5 0 -289 -77 -633 -170z m-6684 -3520 c196 -46 310 -106 548 -284 189
-141 332 -300 411 -455 33 -64 92 -309 105 -431 6 -55 10 -498 10 -1064 0
-1364 26 -2046 110 -2870 58 -568 115 -1299 126 -1612 16 -442 -61 -1116 -155
-1363 -25 -65 -133 -220 -209 -302 -74 -78 -211 -179 -297 -219 -69 -32 -263
-79 -327 -79 -73 0 -308 64 -386 105 -88 46 -396 276 -479 357 -130 128 -312
413 -392 613 -46 114 -94 294 -112 417 -20 137 7 336 90 682 68 280 75 360 68
836 -5 345 -15 528 -47 900 -29 345 -62 1207 -91 2390 -11 469 -10 500 23 785
19 169 20 194 8 421 -16 290 -11 378 30 554 36 160 66 227 147 335 71 94 92
115 197 189 81 58 110 69 287 111 123 29 154 28 335 -16z"/>
</g>
</svg>
